<svg data-v-fde0c5aa="" xmlns="http://www.w3.org/2000/svg" viewBox="0 0 300 300" class="iconAbove"><!----><defs data-v-fde0c5aa=""><linearGradient data-v-fde0c5aa="" gradientTransform="rotate(25)" id="57b85cb0-948a-4f9d-b650-c9ade1f4676a" x1="0%" y1="0%" x2="100%" y2="0%"><stop data-v-fde0c5aa="" offset="0%" stop-color="#0D7CE9" stop-opacity="1"></stop><stop data-v-fde0c5aa="" offset="100%" stop-color="#15CFF1" stop-opacity="1"></stop></linearGradient></defs><rect data-v-fde0c5aa="" fill="url(#57b85cb0-948a-4f9d-b650-c9ade1f4676a)" x="0" y="0" width="300px" height="300px" class="logo-background-square"></rect><defs data-v-fde0c5aa=""><!----></defs><g data-v-fde0c5aa="" id="48bd2590-becf-4d6b-b641-5fb01d120931" fill="#ffffff" transform="matrix(3.7696096897125244,0,0,3.7696096897125244,16.951917086707823,163.36597383473978)"><path d="M7.82 11.53L7.82 11.53L7.82 11.53Q7.82 11.98 7.79 12.34L7.79 12.34L7.79 12.34Q7.77 12.69 7.69 12.99L7.69 12.99L7.69 12.99Q7.62 13.29 7.54 13.51L7.54 13.51L7.54 13.51Q7.46 13.74 7.31 13.91L7.31 13.91L7.31 13.91Q7.16 14.09 7.01 14.21L7.01 14.21L7.01 14.21Q6.86 14.33 6.63 14.42L6.63 14.42L6.63 14.42Q6.39 14.51 6.17 14.56L6.17 14.56L6.17 14.56Q5.95 14.61 5.63 14.64L5.63 14.64L5.63 14.64Q5.30 14.66 5.00 14.67L5.00 14.67L5.00 14.67Q4.70 14.68 4.27 14.68L4.27 14.68L4.27 14.68Q3.46 14.68 2.91 14.64L2.91 14.64L2.91 14.64Q2.36 14.59 1.97 14.43L1.97 14.43L1.97 14.43Q1.59 14.27 1.37 14.11L1.37 14.11L1.37 14.11Q1.16 13.94 1.04 13.57L1.04 13.57L1.04 13.57Q0.92 13.21 0.88 12.87L0.88 12.87L0.88 12.87Q0.84 12.54 0.81 11.92L0.81 11.92L2.08 11.72L2.08 11.72Q2.10 11.87 2.12 12.14L2.12 12.14L2.12 12.14Q2.16 12.56 2.20 12.74L2.20 12.74L2.20 12.74Q2.24 12.91 2.34 13.13L2.34 13.13L2.34 13.13Q2.45 13.34 2.69 13.40L2.69 13.40L2.69 13.40Q2.92 13.47 3.29 13.51L3.29 13.51L3.29 13.51Q3.67 13.56 4.30 13.56L4.30 13.56L4.30 13.56Q4.82 13.56 5.15 13.54L5.15 13.54L5.15 13.54Q5.49 13.51 5.74 13.42L5.74 13.42L5.74 13.42Q6.00 13.34 6.13 13.23L6.13 13.23L6.13 13.23Q6.25 13.12 6.33 12.89L6.33 12.89L6.33 12.89Q6.41 12.66 6.43 12.41L6.43 12.41L6.43 12.41Q6.45 12.17 6.45 11.76L6.45 11.76L6.45 11.76Q6.44 10.86 6.35 10.51L6.35 10.51L6.35 10.51Q6.25 10.17 5.95 10.10L5.95 10.10L2.55 9.51L2.55 9.51Q1.66 9.36 1.31 8.83L1.31 8.83L1.31 8.83Q0.96 8.31 0.94 7.13L0.94 7.13L0.94 7.13Q0.94 6.50 1.01 6.05L1.01 6.05L1.01 6.05Q1.07 5.61 1.23 5.27L1.23 5.27L1.23 5.27Q1.39 4.93 1.63 4.72L1.63 4.72L1.63 4.72Q1.87 4.52 2.25 4.39L2.25 4.39L2.25 4.39Q2.64 4.27 3.10 4.22L3.10 4.22L3.10 4.22Q3.56 4.18 4.23 4.18L4.23 4.18L4.23 4.18Q4.78 4.18 5.17 4.20L5.17 4.20L5.17 4.20Q5.56 4.22 5.94 4.29L5.94 4.29L5.94 4.29Q6.31 4.35 6.56 4.46L6.56 4.46L6.56 4.46Q6.80 4.57 7.01 4.74L7.01 4.74L7.01 4.74Q7.22 4.92 7.33 5.16L7.33 5.16L7.33 5.16Q7.45 5.41 7.51 5.75L7.51 5.75L7.51 5.75Q7.57 6.08 7.57 6.52L7.57 6.52L6.36 6.80L6.36 6.80Q6.29 6.05 6.27 5.95L6.27 5.95L6.27 5.95Q6.19 5.60 5.88 5.48L5.88 5.48L5.88 5.48Q5.54 5.33 4.45 5.33L4.45 5.33L4.45 5.33Q3.86 5.33 3.47 5.37L3.47 5.37L3.47 5.37Q3.08 5.40 2.84 5.47L2.84 5.47L2.84 5.47Q2.59 5.53 2.47 5.66L2.47 5.66L2.47 5.66Q2.35 5.79 2.31 5.94L2.31 5.94L2.31 5.94Q2.27 6.08 2.27 6.32L2.27 6.32L2.27 7.51L2.27 7.51Q2.27 8.15 2.83 8.24L2.83 8.24L5.28 8.66L5.28 8.66Q5.62 8.72 5.82 8.76L5.82 8.76L5.82 8.76Q6.03 8.80 6.30 8.87L6.30 8.87L6.30 8.87Q6.56 8.93 6.71 9.01L6.71 9.01L6.71 9.01Q6.86 9.08 7.05 9.20L7.05 9.20L7.05 9.20Q7.23 9.32 7.33 9.46L7.33 9.46L7.33 9.46Q7.44 9.60 7.54 9.80L7.54 9.80L7.54 9.80Q7.65 10.00 7.70 10.25L7.70 10.25L7.70 10.25Q7.75 10.50 7.79 10.82L7.79 10.82L7.79 10.82Q7.82 11.14 7.82 11.53ZM19.57 9.92L19.57 14.52L18.22 14.52L18.22 9.97L18.22 9.97Q18.22 9.19 18.25 8.79L18.25 8.79L18.25 8.79Q18.25 8.54 18.21 8.39L18.21 8.39L18.21 8.39Q18.18 8.24 18.06 8.07L18.06 8.07L18.06 8.07Q17.94 7.91 17.68 7.83L17.68 7.83L17.68 7.83Q17.41 7.75 16.99 7.75L16.99 7.75L16.99 7.75Q16.54 7.75 16.23 7.81L16.23 7.81L16.23 7.81Q15.91 7.87 15.73 7.97L15.73 7.97L15.73 7.97Q15.54 8.07 15.44 8.25L15.44 8.25L15.44 8.25Q15.33 8.44 15.30 8.64L15.30 8.64L15.30 8.64Q15.27 8.84 15.27 9.16L15.27 9.16L15.27 9.16Q15.27 9.31 15.28 9.70L15.28 9.70L15.28 9.70Q15.29 10.08 15.29 10.32L15.29 10.32L15.29 14.52L13.95 14.52L13.95 9.72L13.95 9.72Q13.95 9.69 13.95 9.63L13.95 9.63L13.95 9.63Q13.95 9.16 13.94 8.96L13.94 8.96L13.94 8.96Q13.93 8.76 13.89 8.49L13.89 8.49L13.89 8.49Q13.84 8.22 13.76 8.12L13.76 8.12L13.76 8.12Q13.67 8.03 13.49 7.92L13.49 7.92L13.49 7.92Q13.32 7.81 13.06 7.78L13.06 7.78L13.06 7.78Q12.81 7.75 12.42 7.75L12.42 7.75L12.42 7.75Q12.17 7.75 11.95 7.78L11.95 7.78L11.95 7.78Q11.73 7.81 11.53 7.88L11.53 7.88L11.53 7.88Q11.32 7.95 11.19 8.08L11.19 8.08L11.19 8.08Q11.06 8.21 11.05 8.39L11.05 8.39L11.05 8.39Q10.96 9.30 10.96 10.38L10.96 10.38L10.96 14.52L9.62 14.52L9.62 7.02L10.85 7.02L10.98 7.84L10.98 7.84Q11.25 7.29 11.76 7.05L11.76 7.05L11.76 7.05Q12.28 6.82 13.06 6.82L13.06 6.82L13.06 6.82Q13.84 6.82 14.29 7.07L14.29 7.07L14.29 7.07Q14.75 7.31 14.96 7.88L14.96 7.88L14.96 7.88Q15.51 6.81 17.12 6.81L17.12 6.81L17.12 6.81Q17.65 6.81 18.02 6.87L18.02 6.87L18.02 6.87Q18.40 6.92 18.68 7.08L18.68 7.08L18.68 7.08Q18.96 7.24 19.12 7.46L19.12 7.46L19.12 7.46Q19.29 7.68 19.39 8.04L19.39 8.04L19.39 8.04Q19.50 8.41 19.53 8.85L19.53 8.85L19.53 8.85Q19.57 9.28 19.57 9.92L19.57 9.92ZM27.16 9.56L27.16 14.52L26.09 14.52L25.87 13.45L25.87 13.45Q25.67 14.15 25.13 14.39L25.13 14.39L25.13 14.39Q24.60 14.62 23.56 14.62L23.56 14.62L23.56 14.62Q22.88 14.62 22.44 14.49L22.44 14.49L22.44 14.49Q22.00 14.36 21.75 14.04L21.75 14.04L21.75 14.04Q21.49 13.73 21.39 13.27L21.39 13.27L21.39 13.27Q21.29 12.82 21.29 12.10L21.29 12.10L21.29 12.10Q21.29 11.78 21.40 11.53L21.40 11.53L21.40 11.53Q21.51 11.27 21.71 11.09L21.71 11.09L21.71 11.09Q21.90 10.92 22.23 10.79L22.23 10.79L22.23 10.79Q22.55 10.66 22.90 10.58L22.90 10.58L22.90 10.58Q23.25 10.51 23.74 10.46L23.74 10.46L23.74 10.46Q24.24 10.42 24.71 10.40L24.71 10.40L24.71 10.40Q25.18 10.39 25.81 10.39L25.81 10.39L25.81 8.36L25.81 8.36Q25.81 8.01 25.48 7.88L25.48 7.88L25.48 7.88Q25.16 7.75 24.32 7.75L24.32 7.75L24.32 7.75Q23.73 7.75 23.43 7.77L23.43 7.77L23.43 7.77Q23.14 7.80 22.99 7.93L22.99 7.93L22.99 7.93Q22.83 8.07 22.81 8.20L22.81 8.20L22.81 8.20Q22.78 8.33 22.78 8.68L22.78 8.68L22.78 8.68Q22.77 8.81 22.77 8.89L22.77 8.89L21.72 8.85L21.72 8.85Q21.71 8.74 21.71 8.52L21.71 8.52L21.71 8.52Q21.71 8.07 21.84 7.75L21.84 7.75L21.84 7.75Q21.98 7.43 22.19 7.25L22.19 7.25L22.19 7.25Q22.40 7.07 22.77 6.97L22.77 6.97L22.77 6.97Q23.14 6.86 23.50 6.84L23.50 6.84L23.50 6.84Q23.86 6.81 24.40 6.81L24.40 6.81L24.40 6.81Q25.22 6.81 25.74 6.94L25.74 6.94L25.74 6.94Q26.25 7.06 26.58 7.39L26.58 7.39L26.58 7.39Q26.91 7.72 27.03 8.23L27.03 8.23L27.03 8.23Q27.16 8.74 27.16 9.56L27.16 9.56ZM25.81 12.37L25.81 12.37L25.81 11.20L25.81 11.20Q24.47 11.20 23.74 11.31L23.74 11.31L23.74 11.31Q23.02 11.41 22.77 11.59L22.77 11.59L22.77 11.59Q22.53 11.77 22.53 12.10L22.53 12.10L22.53 12.10Q22.53 12.11 22.53 12.14L22.53 12.14L22.53 12.14Q22.53 13.18 22.70 13.43L22.70 13.43L22.70 13.43Q22.87 13.69 23.75 13.69L23.75 13.69L23.75 13.69Q24.49 13.69 24.96 13.51L24.96 13.51L24.96 13.51Q25.42 13.33 25.60 13.05L25.60 13.05L25.60 13.05Q25.79 12.78 25.81 12.37ZM32.58 6.85L32.58 6.85L32.53 7.99L32.53 7.99Q32.27 7.96 32.03 7.96L32.03 7.96L32.03 7.96Q31.55 7.96 31.25 8.05L31.25 8.05L31.25 8.05Q30.95 8.15 30.79 8.38L30.79 8.38L30.79 8.38Q30.64 8.61 30.59 8.91L30.59 8.91L30.59 8.91Q30.54 9.21 30.54 9.71L30.54 9.71L30.54 9.71Q30.54 9.99 30.56 10.53L30.56 10.53L30.56 10.53Q30.58 11.07 30.58 11.30L30.58 11.30L30.58 14.52L29.24 14.52L29.24 7.02L30.46 7.02L30.60 7.86L30.60 7.86Q30.81 7.37 31.24 7.10L31.24 7.10L31.24 7.10Q31.67 6.83 32.27 6.83L32.27 6.83L32.27 6.83Q32.42 6.83 32.58 6.85ZM37.11 13.57L37.11 13.57L37.08 14.53L37.08 14.53Q36.50 14.62 36.04 14.62L36.04 14.62L36.04 14.62Q35.54 14.62 35.22 14.51L35.22 14.51L35.22 14.51Q34.89 14.40 34.73 14.16L34.73 14.16L34.73 14.16Q34.56 13.92 34.50 13.63L34.50 13.63L34.50 13.63Q34.44 13.34 34.44 12.89L34.44 12.89L34.44 7.79L33.42 7.79L33.42 7.02L34.44 7.02L34.44 4.89L35.78 4.78L35.78 7.02L37.16 7.02L37.16 7.79L35.78 7.79L35.78 12.43L35.78 12.43Q35.78 13.17 35.85 13.39L35.85 13.39L35.85 13.39Q35.92 13.61 36.24 13.61L36.24 13.61L36.24 13.61Q36.56 13.61 37.11 13.57ZM46.12 11.59L46.12 11.59L46.12 11.59Q46.12 12.02 46.09 12.34L46.09 12.34L46.09 12.34Q46.07 12.67 46.01 12.95L46.01 12.95L46.01 12.95Q45.96 13.24 45.90 13.44L45.90 13.44L45.90 13.44Q45.83 13.64 45.70 13.81L45.70 13.81L45.70 13.81Q45.57 13.99 45.45 14.09L45.45 14.09L45.45 14.09Q45.32 14.20 45.09 14.28L45.09 14.28L45.09 14.28Q44.86 14.37 44.65 14.41L44.65 14.41L44.65 14.41Q44.44 14.45 44.09 14.48L44.09 14.48L44.09 14.48Q43.74 14.51 43.41 14.51L43.41 14.51L43.41 14.51Q43.09 14.52 42.59 14.52L42.59 14.52L38.94 14.52L38.94 4.33L42.81 4.33L42.81 4.33Q43.59 4.33 44.10 4.41L44.10 4.41L44.10 4.41Q44.60 4.49 45.00 4.70L45.00 4.70L45.00 4.70Q45.39 4.90 45.57 5.28L45.57 5.28L45.57 5.28Q45.75 5.65 45.75 6.23L45.75 6.23L45.76 6.97L45.76 6.97Q45.76 7.44 45.73 7.73L45.73 7.73L45.73 7.73Q45.69 8.03 45.61 8.26L45.61 8.26L45.61 8.26Q45.52 8.50 45.35 8.64L45.35 8.64L45.35 8.64Q45.18 8.78 44.94 8.87L44.94 8.87L44.94 8.87Q44.69 8.96 44.31 9.03L44.31 9.03L44.31 9.03Q44.78 9.08 45.11 9.24L45.11 9.24L45.11 9.24Q45.45 9.39 45.64 9.61L45.64 9.61L45.64 9.61Q45.83 9.83 45.94 10.17L45.94 10.17L45.94 10.17Q46.05 10.50 46.09 10.82L46.09 10.82L46.09 10.82Q46.12 11.14 46.12 11.59ZM44.41 7.76L44.41 6.68L44.41 6.68Q44.41 6.67 44.41 6.64L44.41 6.64L44.41 6.64Q44.41 6.35 44.41 6.23L44.41 6.23L44.41 6.23Q44.41 6.11 44.37 5.94L44.37 5.94L44.37 5.94Q44.33 5.76 44.29 5.71L44.29 5.71L44.29 5.71Q44.26 5.65 44.12 5.56L44.12 5.56L44.12 5.56Q43.99 5.47 43.86 5.45L43.86 5.45L43.86 5.45Q43.73 5.43 43.45 5.40L43.45 5.40L43.45 5.40Q43.18 5.37 42.90 5.37L42.90 5.37L42.90 5.37Q42.63 5.37 42.16 5.37L42.16 5.37L40.32 5.37L40.32 8.64L41.69 8.64L41.69 8.64Q42.59 8.64 43.14 8.59L43.14 8.59L43.14 8.59Q43.70 8.54 43.97 8.41L43.97 8.41L43.97 8.41Q44.24 8.29 44.32 8.14L44.32 8.14L44.32 8.14Q44.41 8.00 44.41 7.76L44.41 7.76ZM44.78 12.17L44.77 11.26L44.77 11.26Q44.75 10.45 44.71 10.23L44.71 10.23L44.71 10.23Q44.61 9.86 44.24 9.72L44.24 9.72L44.24 9.72Q43.77 9.54 42.16 9.54L42.16 9.54L42.16 9.54Q42.05 9.54 41.92 9.54L41.92 9.54L40.32 9.54L40.32 13.49L42.93 13.49L42.93 13.49Q43.72 13.49 44.13 13.35L44.13 13.35L44.13 13.35Q44.53 13.22 44.66 12.95L44.66 12.95L44.66 12.95Q44.79 12.69 44.78 12.17L44.78 12.17ZM51.23 6.85L51.23 6.85L51.17 7.99L51.17 7.99Q50.91 7.96 50.68 7.96L50.68 7.96L50.68 7.96Q50.20 7.96 49.90 8.05L49.90 8.05L49.90 8.05Q49.59 8.15 49.44 8.38L49.44 8.38L49.44 8.38Q49.29 8.61 49.24 8.91L49.24 8.91L49.24 8.91Q49.18 9.21 49.18 9.71L49.18 9.71L49.18 9.71Q49.18 9.99 49.21 10.53L49.21 10.53L49.21 10.53Q49.23 11.07 49.23 11.30L49.23 11.30L49.23 14.52L47.89 14.52L47.89 7.02L49.11 7.02L49.25 7.86L49.25 7.86Q49.46 7.37 49.89 7.10L49.89 7.10L49.89 7.10Q50.32 6.83 50.92 6.83L50.92 6.83L50.92 6.83Q51.07 6.83 51.23 6.85ZM58.20 9.56L58.20 14.52L57.13 14.52L56.92 13.45L56.92 13.45Q56.71 14.15 56.17 14.39L56.17 14.39L56.17 14.39Q55.64 14.62 54.61 14.62L54.61 14.62L54.61 14.62Q53.92 14.62 53.48 14.49L53.48 14.49L53.48 14.49Q53.05 14.36 52.79 14.04L52.79 14.04L52.79 14.04Q52.53 13.73 52.43 13.27L52.43 13.27L52.43 13.27Q52.33 12.82 52.33 12.10L52.33 12.10L52.33 12.10Q52.33 11.78 52.44 11.53L52.44 11.53L52.44 11.53Q52.55 11.27 52.75 11.09L52.75 11.09L52.75 11.09Q52.94 10.92 53.27 10.79L53.27 10.79L53.27 10.79Q53.59 10.66 53.94 10.58L53.94 10.58L53.94 10.58Q54.29 10.51 54.79 10.46L54.79 10.46L54.79 10.46Q55.28 10.42 55.75 10.40L55.75 10.40L55.75 10.40Q56.23 10.39 56.85 10.39L56.85 10.39L56.85 8.36L56.85 8.36Q56.85 8.01 56.53 7.88L56.53 7.88L56.53 7.88Q56.20 7.75 55.36 7.75L55.36 7.75L55.36 7.75Q54.77 7.75 54.48 7.77L54.48 7.77L54.48 7.77Q54.18 7.80 54.03 7.93L54.03 7.93L54.03 7.93Q53.87 8.07 53.85 8.20L53.85 8.20L53.85 8.20Q53.83 8.33 53.82 8.68L53.82 8.68L53.82 8.68Q53.81 8.81 53.81 8.89L53.81 8.89L52.77 8.85L52.77 8.85Q52.75 8.74 52.75 8.52L52.75 8.52L52.75 8.52Q52.75 8.07 52.89 7.75L52.89 7.75L52.89 7.75Q53.02 7.43 53.23 7.25L53.23 7.25L53.23 7.25Q53.44 7.07 53.81 6.97L53.81 6.97L53.81 6.97Q54.18 6.86 54.54 6.84L54.54 6.84L54.54 6.84Q54.91 6.81 55.45 6.81L55.45 6.81L55.45 6.81Q56.27 6.81 56.78 6.94L56.78 6.94L56.78 6.94Q57.29 7.06 57.62 7.39L57.62 7.39L57.62 7.39Q57.95 7.72 58.07 8.23L58.07 8.23L58.07 8.23Q58.20 8.74 58.20 9.56L58.20 9.56ZM56.85 12.37L56.85 12.37L56.85 11.20L56.85 11.20Q55.51 11.20 54.78 11.31L54.78 11.31L54.78 11.31Q54.06 11.41 53.82 11.59L53.82 11.59L53.82 11.59Q53.57 11.77 53.57 12.10L53.57 12.10L53.57 12.10Q53.57 12.11 53.57 12.14L53.57 12.14L53.57 12.14Q53.57 13.18 53.74 13.43L53.74 13.43L53.74 13.43Q53.92 13.69 54.79 13.69L54.79 13.69L54.79 13.69Q55.54 13.69 56 13.51L56 13.51L56 13.51Q56.46 13.33 56.65 13.05L56.65 13.05L56.65 13.05Q56.83 12.78 56.85 12.37ZM61.69 7.02L61.69 14.52L60.34 14.52L60.34 7.02L61.69 7.02ZM60.34 4.12L61.69 4.12L61.69 5.30L60.34 5.30L60.34 4.12ZM69.78 10.36L69.78 14.52L68.43 14.52L68.43 9.98L68.43 9.98Q68.43 9.54 68.43 9.28L68.43 9.28L68.43 9.28Q68.43 9.02 68.40 8.75L68.40 8.75L68.40 8.75Q68.38 8.48 68.35 8.35L68.35 8.35L68.35 8.35Q68.33 8.22 68.25 8.08L68.25 8.08L68.25 8.08Q68.18 7.95 68.11 7.90L68.11 7.90L68.11 7.90Q68.03 7.85 67.89 7.81L67.89 7.81L67.89 7.81Q67.74 7.77 67.60 7.76L67.60 7.76L67.60 7.76Q67.46 7.75 67.22 7.75L67.22 7.75L67.22 7.75Q66.70 7.75 66.33 7.81L66.33 7.81L66.33 7.81Q65.97 7.87 65.73 7.97L65.73 7.97L65.73 7.97Q65.50 8.07 65.38 8.26L65.38 8.26L65.38 8.26Q65.25 8.44 65.20 8.66L65.20 8.66L65.20 8.66Q65.15 8.87 65.15 9.19L65.15 9.19L65.15 9.19Q65.15 9.37 65.17 9.81L65.17 9.81L65.17 9.81Q65.19 10.25 65.19 10.52L65.19 10.52L65.19 14.52L63.85 14.52L63.85 7.02L65.08 7.02L65.21 7.86L65.21 7.86Q65.39 7.30 65.99 7.05L65.99 7.05L65.99 7.05Q66.60 6.81 67.44 6.81L67.44 6.81L67.44 6.81Q67.84 6.81 68.15 6.86L68.15 6.86L68.15 6.86Q68.46 6.90 68.69 7.02L68.69 7.02L68.69 7.02Q68.93 7.13 69.11 7.27L69.11 7.27L69.11 7.27Q69.28 7.42 69.40 7.65L69.40 7.65L69.40 7.65Q69.52 7.89 69.60 8.13L69.60 8.13L69.60 8.13Q69.67 8.38 69.71 8.75L69.71 8.75L69.71 8.75Q69.75 9.12 69.77 9.48L69.77 9.48L69.77 9.48Q69.78 9.85 69.78 10.36L69.78 10.36Z"></path></g><defs data-v-fde0c5aa=""><!----></defs><g data-v-fde0c5aa="" id="f19daaa8-1e7b-48a8-a6a5-400e624e7022" stroke="none" fill="#ffffff" transform="matrix(0.7960355877876282,0,0,0.7960355877876282,110.23398107867983,81.29733250269015)"><path d="M54.408 42.422a1.31 1.31 0 0 1 0-2.622 1.31 1.31 0 0 1 0 2.622m0-6.544c-2.877 0-5.217 2.348-5.217 5.233s2.34 5.233 5.217 5.233c2.876 0 5.216-2.348 5.216-5.233s-2.34-5.233-5.216-5.233m20.094 38.323a1.965 1.965 0 0 0-.455 1.258v20.62H39.405V79.107c0-.57-.247-1.11-.676-1.483a1.949 1.949 0 0 0-1.56-.457L26.31 78.753a4.227 4.227 0 0 1-3.297-1.096 4.256 4.256 0 0 1-1.406-3.22c0-.102-.007-.204-.021-.304l-2.013-13.624a1.957 1.957 0 0 0-1.933-1.673h-3.82a2.87 2.87 0 0 1-2.507-1.446 2.89 2.89 0 0 1-.015-2.901l7.907-13.966c.274-.357.422-.803.406-1.266a34.638 34.638 0 0 1-.022-1.185c0-18.83 15.271-34.15 34.042-34.15C72.803 3.922 89 19.56 89 38.072c0 11.03-5.962 25.887-14.5 36.13m6.594-63.085C73.694 4.052 63.683 0 53.631 0 32.704 0 15.68 17.08 15.68 38.072c0 .23.002.466.008.722l-7.79 13.758a6.783 6.783 0 0 0 .037 6.81 6.74 6.74 0 0 0 5.885 3.395h2.134l1.744 11.81a8.245 8.245 0 0 0 2.688 5.994 8.189 8.189 0 0 0 6.445 2.079l8.665-1.265v16.664c0 1.083.875 1.961 1.954 1.961h38.551c1.08 0 1.955-.878 1.955-1.96V76.163C86.786 65.299 92.91 49.74 92.91 38.072c0-10.11-4.196-19.683-11.815-26.955m-2.574 42.078c-.545 1.094-3.395 1.846-8.534 1.057a46.311 46.311 0 0 1-5.258-1.151c.238-1.687.423-3.429.557-5.2a75.661 75.661 0 0 0 6.531-4.364 42.644 42.644 0 0 1 2.414 2.182c3.719 3.645 4.834 6.381 4.29 7.476zm-19.533 7.884c-1.592 4.965-3.534 7.188-4.753 7.188-1.22 0-3.162-2.223-4.753-7.188a46.696 46.696 0 0 1-1.321-5.236 80.704 80.704 0 0 0 6.074-2.315 80.744 80.744 0 0 0 6.073 2.316 46.66 46.66 0 0 1-1.32 5.235zm-20.506-6.827c-5.14.788-7.99.037-8.534-1.057-.544-1.095.571-3.83 4.29-7.476a42.683 42.683 0 0 1 2.413-2.182 76.881 76.881 0 0 0 6.532 4.36 79.89 79.89 0 0 0 .559 5.204 46.377 46.377 0 0 1-5.26 1.151zM34.238 36.36c-3.719-3.645-4.834-6.381-4.29-7.476.388-.779 1.943-1.384 4.66-1.384 1.101 0 2.393.1 3.874.327 1.65.253 3.416.642 5.258 1.15a81.43 81.43 0 0 0-.556 5.2 75.756 75.756 0 0 0-6.532 4.365 42.697 42.697 0 0 1-2.414-2.182zM49.482 21c1.59-4.965 3.533-7.188 4.753-7.188 1.219 0 3.161 2.223 4.753 7.188a46.646 46.646 0 0 1 1.32 5.235 80.825 80.825 0 0 0-6.073 2.316 80.786 80.786 0 0 0-6.074-2.315c.369-1.882.81-3.64 1.32-5.236zm16.034 17.93a69.386 69.386 0 0 1 3.09 2.11 69.687 69.687 0 0 1-3.088 2.107 92.37 92.37 0 0 0-.002-4.216zm-6.39-8.119c.611-.229 1.22-.451 1.822-.659.074.558.14 1.126.202 1.698a93.242 93.242 0 0 0-1.867-.961l-.158-.078zM47.318 31.85c.063-.572.128-1.14.202-1.698.602.208 1.211.43 1.823.66-.052.026-.105.05-.157.077-.63.315-1.252.635-1.868.961zm-4.366 11.299a69.616 69.616 0 0 1-3.09-2.11 69.298 69.298 0 0 1 3.088-2.107 92.34 92.34 0 0 0 .002 4.217zm6.391 8.118c-.612.23-1.22.452-1.823.66a74.996 74.996 0 0 1-.202-1.699c.619.328 1.241.649 1.867.962l.158.077zm8.194-3.586a89.402 89.402 0 0 1-3.303 1.567 89.193 89.193 0 0 1-7.284-3.687 89.866 89.866 0 0 1 0-9.044 88.891 88.891 0 0 1 7.284-3.686 88.943 88.943 0 0 1 7.284 3.686 89.404 89.404 0 0 1 0 9.044 89.302 89.302 0 0 1-3.981 2.12zm1.745 3.509a92.76 92.76 0 0 0 1.867-.961 72.81 72.81 0 0 1-.202 1.697 72 72 0 0 1-1.823-.659c.053-.026.105-.05.158-.077zm10.704-23.363c1.482-.228 2.773-.327 3.874-.327 2.717 0 4.273.605 4.66 1.384.544 1.095-.571 3.83-4.29 7.476a42.568 42.568 0 0 1-2.414 2.182 75.73 75.73 0 0 0-6.53-4.364 79.803 79.803 0 0 0-.56-5.2 46.32 46.32 0 0 1 5.26-1.151zm6.976 15.087a45.059 45.059 0 0 0-2.04-1.875 45.06 45.06 0 0 0 2.04-1.874c6.134-6.013 6.135-9.862 5.056-12.031-1.08-2.17-4.145-4.484-12.623-3.184a49.448 49.448 0 0 0-5.331 1.148 49.95 49.95 0 0 0-1.356-5.298c-2.624-8.19-6.057-9.91-8.474-9.91-4.771 0-8.08 6.473-9.836 15.207a49.438 49.438 0 0 0-5.326-1.147c-8.477-1.3-11.543 1.014-12.622 3.184-1.91 3.84 1.347 8.948 7.091 13.91a44.97 44.97 0 0 0-2.035 1.87c-6.134 6.013-6.136 9.861-5.056 12.031.862 1.734 2.993 3.56 8.14 3.56 1.294 0 2.78-.115 4.482-.376a49.486 49.486 0 0 0 5.331-1.149 49.917 49.917 0 0 0 1.356 5.299c2.625 8.19 6.057 9.91 8.475 9.91 4.77 0 8.08-6.473 9.835-15.207 1.858.5 3.645.889 5.326 1.147 1.703.261 3.188.376 4.482.376 5.147 0 7.278-1.826 8.14-3.56 1.08-2.17 1.079-6.018-5.055-12.031z"></path></g><!----></svg>